<?xml version="1.0" standalone="no"?>
<!DOCTYPE svg PUBLIC "-//W3C//DTD SVG 20010904//EN"
 "http://www.w3.org/TR/2001/REC-SVG-20010904/DTD/svg10.dtd">
<svg version="1.0" xmlns="http://www.w3.org/2000/svg"
 width="717.000000pt" height="717.000000pt" viewBox="0 0 717.000000 717.000000"
 preserveAspectRatio="xMidYMid meet">
<metadata>
Created by potrace 1.11, written by Peter Selinger 2001-2013
</metadata>
<g transform="translate(0.000000,717.000000) scale(0.100000,-0.100000)"
fill="#000000" stroke="none">
<path d="M4185 6954 c-89 -7 -263 -26 -315 -35 -128 -22 -538 -60 -700 -66
-168 -5 -176 -5 -199 16 -29 26 -53 27 -49 4 3 -17 -17 -18 -267 -24 -203 -5
-300 -12 -390 -27 -286 -49 -364 -64 -435 -82 -74 -20 -397 -121 -455 -142
-72 -27 -236 -115 -314 -169 -47 -33 -120 -82 -161 -109 -41 -27 -112 -82
-156 -122 -87 -77 -266 -274 -316 -347 -34 -48 -140 -290 -194 -441 -19 -52
-39 -104 -44 -115 -5 -11 -14 -57 -20 -101 -6 -45 -20 -113 -31 -150 -54 -188
-84 -391 -73 -499 4 -35 1 -152 -6 -261 -14 -225 -1 -557 24 -656 9 -31 29
-150 45 -265 22 -151 41 -242 70 -333 22 -69 54 -179 71 -245 18 -66 49 -174
70 -240 22 -66 48 -151 60 -189 38 -127 179 -399 245 -476 12 -14 48 -74 81
-133 91 -167 393 -505 501 -560 17 -9 60 -49 94 -89 235 -272 499 -484 756
-608 78 -38 163 -76 190 -84 26 -8 106 -33 176 -55 74 -23 167 -45 220 -51 51
-6 128 -19 172 -30 379 -90 734 -104 1185 -45 63 8 241 19 395 24 268 10 284
12 380 41 55 16 159 45 230 64 72 19 157 44 190 56 33 11 123 39 200 61 182
53 492 197 574 267 120 102 266 250 312 317 59 85 148 203 212 282 124 151
243 354 302 515 24 65 50 130 59 145 23 42 66 142 82 193 30 96 91 391 114
553 11 78 27 185 35 237 9 52 20 122 25 155 16 98 23 564 12 785 -10 195 -25
316 -57 460 -8 36 -19 117 -26 180 -6 63 -15 137 -20 163 -5 26 -9 67 -9 89 0
23 -4 55 -9 72 -5 17 -17 60 -26 96 -9 36 -32 103 -52 150 -39 93 -292 524
-370 632 -26 37 -65 93 -85 125 -20 32 -65 93 -100 135 -35 42 -87 107 -115
142 -29 36 -81 86 -115 110 -35 25 -87 62 -116 83 -30 21 -70 52 -90 69 -60
50 -152 106 -242 149 -46 22 -167 82 -269 133 -223 112 -328 154 -441 177 -46
10 -96 22 -110 27 -62 23 -318 48 -490 46 -96 -1 -193 -3 -215 -4z m-325 -377
c0 -16 -39 -36 -57 -30 -23 8 -14 22 20 32 17 5 33 10 35 10 1 1 2 -5 2 -12z
m-1655 -651 c11 0 34 3 50 7 l30 7 -40 -35 c-22 -19 -35 -35 -29 -35 7 0 14
-9 17 -21 4 -15 11 -19 25 -15 20 7 148 -29 167 -46 6 -6 4 -13 -7 -19 -10 -6
-18 -17 -18 -25 0 -11 11 -9 48 12 103 58 136 74 154 74 16 0 10 -11 -31 -57
l-50 -58 36 -5 c32 -4 35 -6 20 -19 -46 -38 7 -42 62 -5 58 38 151 32 219 -14
10 -7 11 -14 1 -36 -10 -21 -10 -29 0 -39 10 -9 16 -7 31 11 12 14 28 22 42
20 34 -3 118 13 118 23 0 23 46 30 112 16 59 -13 68 -13 82 1 9 9 18 13 21 10
3 -3 -9 -15 -27 -27 -18 -11 -26 -21 -18 -21 96 -2 224 -15 261 -25 36 -10 50
-10 59 -2 10 9 11 9 6 0 -5 -9 0 -13 16 -13 13 0 48 -11 78 -23 49 -20 60 -22
87 -10 18 7 68 14 112 15 65 2 83 0 98 -14 16 -17 16 -21 -6 -90 -29 -92 -90
-209 -138 -269 -37 -45 -131 -119 -151 -119 -11 0 -42 44 -42 60 0 7 9 5 22
-4 12 -9 25 -16 29 -16 11 0 18 144 7 157 -8 10 -17 8 -41 -9 -18 -13 -36 -23
-42 -23 -5 0 -26 -8 -46 -17 -42 -18 -112 -32 -152 -29 -15 1 -46 -8 -69 -19
-26 -12 -74 -23 -124 -27 -73 -5 -83 -8 -93 -29 -6 -15 -19 -24 -33 -24 -25
-1 -50 -30 -63 -70 -4 -14 -14 -35 -21 -48 -14 -21 -16 -21 -37 -7 -27 19 -37
19 -37 1 0 -7 -15 -17 -32 -22 -23 -7 -42 -24 -65 -59 -18 -28 -41 -61 -51
-74 l-20 -24 -15 29 -15 29 -13 -28 c-15 -33 -52 -34 -57 -2 -9 62 -9 62 -59
61 -27 -1 -58 3 -70 7 -18 7 -25 3 -38 -23 -14 -27 -18 -30 -28 -16 -19 24
-63 37 -91 26 -23 -8 -25 -6 -28 23 -3 35 -4 34 -50 -27 -19 -25 -23 -27 -33
-13 -8 11 -22 15 -48 11 -36 -4 -36 -4 -52 48 -15 52 -13 129 5 153 4 6 8 50
9 99 1 48 4 92 6 97 3 4 -1 24 -9 44 -13 31 -18 34 -36 25 -48 -24 -57 -28
-87 -34 -17 -4 -34 -14 -37 -22 -11 -30 -36 -14 -42 27 -5 29 -13 43 -25 46
-23 6 -23 7 -2 66 15 41 15 52 4 80 -24 57 -24 96 0 185 20 74 29 93 66 129
29 29 58 47 90 55 33 9 51 21 62 41 11 18 21 25 31 20 8 -3 24 -6 35 -7z
m2513 -120 c26 -19 30 -25 19 -35 -11 -8 -18 -6 -34 12 -46 50 -38 63 15 23z
m-199 -55 c13 -18 24 -53 27 -89 5 -45 10 -59 20 -55 15 6 19 -33 8 -74 -10
-35 -18 -28 -39 33 -11 31 -31 69 -46 83 -33 33 -40 62 -19 78 12 9 13 14 3
24 -18 19 -16 29 6 29 11 0 29 -13 40 -29z m-319 -26 c0 -11 12 -15 48 -15 43
0 52 -4 88 -42 57 -61 61 -68 69 -113 7 -38 6 -39 -9 -18 -20 27 -56 20 -56
-11 0 -12 5 -27 12 -34 9 -9 8 -12 -5 -12 -10 0 -26 14 -35 31 -26 48 -103
149 -113 149 -5 0 -9 -13 -9 -30 0 -16 -4 -30 -9 -30 -21 0 -29 108 -9 128 16
16 28 15 28 -3z m-250 -112 c0 -49 -6 -54 -13 -13 -3 14 -6 30 -7 35 -5 21 0
36 10 30 6 -3 10 -27 10 -52z m468 -224 c-9 -6 -19 -1 -32 13 -18 22 -18 23
10 34 27 11 29 11 32 -13 2 -14 -2 -30 -10 -34z m1798 -120 c10 -12 43 -35 72
-51 80 -46 100 -97 77 -204 -8 -38 -19 -106 -25 -151 -9 -71 -8 -87 6 -115 14
-26 16 -49 10 -122 -7 -98 -21 -126 -63 -126 -14 0 -36 -9 -50 -20 -14 -11
-32 -20 -39 -20 -25 0 -15 -25 26 -64 45 -42 51 -71 18 -82 -13 -4 -41 -22
-63 -41 -22 -19 -46 -38 -52 -44 -7 -5 -13 -21 -13 -34 0 -28 -33 -42 -78 -30
-15 3 -43 9 -62 12 -19 3 -39 10 -45 17 -27 32 -73 50 -130 52 -33 1 -89 7
-125 13 -36 7 -92 15 -125 20 -67 8 -100 22 -115 51 -5 10 -37 33 -71 51 -68
37 -134 105 -144 150 -4 16 -17 42 -29 57 -36 42 -46 67 -46 112 0 72 64 111
133 79 22 -10 29 -6 73 41 27 29 63 59 81 66 34 15 48 42 38 74 -9 27 53 90
88 90 25 0 45 34 26 46 -5 3 -9 14 -9 25 0 40 146 79 178 47 22 -22 89 8 117
52 14 22 35 42 48 44 12 2 42 9 67 14 25 5 81 10 126 11 71 1 83 -2 100 -20z
m-2614 -101 c-17 -17 -45 9 -29 26 9 11 14 10 26 -1 10 -10 11 -17 3 -25z
m-205 -59 c-14 -20 -17 -20 -23 -6 -3 9 -12 17 -20 17 -19 0 -18 9 3 32 16 18
17 18 36 -1 18 -18 18 -21 4 -42z m-234 -349 c-3 -11 -1 -20 4 -20 10 0 10
-46 0 -56 -3 -4 -17 -4 -31 0 l-26 6 22 45 c23 46 40 61 31 25z m49 -25 c-2
-14 -9 -28 -15 -32 -7 -4 -8 0 -4 11 4 10 7 27 7 37 0 11 4 18 9 15 4 -3 6
-17 3 -31z m-852 -1027 c-4 -18 -11 -50 -15 -72 -3 -21 -8 -36 -11 -33 -8 7
17 137 26 137 5 0 5 -15 0 -32z m169 -120 c-4 -24 -8 -46 -9 -49 0 -4 14 -12
30 -19 34 -14 36 -23 15 -73 -14 -34 -14 -36 19 -72 26 -28 35 -33 39 -21 4 9
17 16 29 16 22 -1 22 -2 -7 -25 -38 -32 -25 -43 28 -23 29 10 50 12 66 6 20
-7 23 -13 18 -44 -5 -31 -4 -35 11 -29 36 15 92 18 92 5 0 -6 9 -23 20 -37 16
-21 17 -28 7 -46 -7 -12 -13 -24 -14 -26 -1 -2 -14 11 -28 28 -15 17 -32 31
-38 31 -7 0 -6 -4 2 -9 12 -8 9 -12 -15 -22 -35 -15 -74 -48 -74 -63 -1 -23
-40 -58 -60 -53 -21 5 -74 -39 -65 -54 3 -4 -24 -38 -60 -74 -37 -36 -73 -83
-81 -103 -26 -64 -36 -80 -54 -85 -10 -2 -20 -18 -23 -37 -6 -29 -10 -32 -34
-27 -19 4 -42 -2 -71 -19 -23 -14 -46 -23 -51 -20 -12 8 -81 -13 -81 -24 0 -6
5 -10 10 -10 6 0 20 -11 32 -25 12 -14 29 -25 37 -26 23 -1 -18 -17 -46 -18
-35 -1 -128 46 -123 63 1 5 -5 13 -14 18 -9 5 -16 18 -16 28 0 11 -4 20 -10
20 -5 0 -10 -16 -10 -35 0 -45 -12 -44 -41 3 -35 56 -49 91 -49 123 0 31 -8
36 -29 17 -11 -11 -12 -2 -6 52 4 36 7 76 6 88 0 13 3 31 9 40 7 13 9 9 10
-19 l0 -36 35 11 c24 8 35 17 36 31 1 32 8 67 23 115 8 25 17 113 21 199 3 85
10 162 15 172 6 10 10 27 10 38 0 11 7 26 15 35 8 8 15 19 15 24 0 5 8 16 17
23 15 13 16 11 10 -18 -4 -20 -2 -33 4 -33 7 0 8 -24 3 -70 -3 -38 -3 -70 0
-70 4 0 29 7 56 16 41 13 56 25 87 71 21 30 43 64 49 74 6 10 14 16 18 12 4
-5 21 8 37 27 19 21 26 26 19 13 -15 -32 14 -31 44 2 22 24 105 66 117 59 4
-2 3 -23 -2 -46z m621 -98 c17 -10 25 -140 9 -140 -5 0 -9 -12 -9 -26 0 -43
-17 -64 -53 -64 -18 0 -38 5 -44 11 -8 8 -14 5 -22 -10 -14 -26 -31 -27 -31
-3 -1 16 -2 16 -15 -1 -7 -10 -22 -17 -32 -15 -27 5 -30 68 -5 91 23 21 52 13
52 -15 0 -11 4 -16 11 -12 7 4 9 22 4 50 -6 39 -4 44 13 44 13 0 24 10 30 29
12 34 46 71 65 71 6 0 19 -5 27 -10z m-835 -874 c17 -40 11 -66 -15 -66 -18 0
-28 16 -36 58 -10 52 30 58 51 8z m-80 -6 c-3 -5 -15 -10 -26 -10 -11 0 -17 5
-14 10 3 6 15 10 26 10 11 0 17 -4 14 -10z m275 -83 c0 -2 -9 -12 -20 -22 -19
-18 -20 -17 -20 3 0 15 6 22 20 22 11 0 20 -2 20 -3z m-500 -979 c0 -7 -4 -19
-9 -27 -11 -17 -23 1 -15 23 7 19 24 21 24 4z m41 -221 c14 -9 22 -8 31 1 25
25 41 14 34 -23 -8 -39 5 -45 38 -20 25 19 83 19 120 0 34 -18 42 -14 51 26 6
25 11 30 33 27 23 -3 28 -9 32 -43 5 -39 6 -40 45 -40 50 0 54 -15 25 -101
-12 -36 -27 -95 -34 -132 -14 -74 -24 -80 -78 -41 -22 15 -29 16 -35 5 -4 -7
-27 -23 -50 -35 -45 -22 -47 -28 -43 -101 2 -40 1 -43 -15 -30 -9 7 -25 30
-35 49 -10 20 -28 47 -40 61 -12 14 -29 35 -37 47 -8 12 -39 33 -68 47 -51 23
-53 26 -64 77 -16 72 -35 99 -70 99 -42 0 -60 26 -52 79 6 41 9 45 46 57 44
14 137 9 166 -9z m547 -179 c40 -52 42 -95 6 -137 -14 -17 -30 -31 -35 -31
-22 0 -41 65 -36 126 7 98 17 104 65 42z"/>
<path d="M2730 5614 c-10 -11 -9 -14 8 -14 25 0 37 16 18 23 -8 3 -20 -1 -26
-9z"/>
<path d="M3245 5600 c4 -6 11 -8 16 -5 14 9 11 15 -7 15 -8 0 -12 -5 -9 -10z"/>
<path d="M2492 3558 c-16 -16 -15 -28 3 -28 8 0 15 9 15 20 0 23 -2 24 -18 8z"/>
<path d="M1927 2860 c3 -11 7 -20 9 -20 2 0 4 9 4 20 0 11 -4 20 -9 20 -5 0
-7 -9 -4 -20z"/>
<path d="M2010 2840 c0 -5 5 -10 11 -10 5 0 7 -4 4 -10 -3 -5 -1 -10 4 -10 13
0 13 3 5 24 -7 18 -24 22 -24 6z"/>
<path d="M2005 2710 c-8 -13 -1 -24 14 -19 6 3 7 10 2 18 -6 10 -10 10 -16 1z"/>
<path d="M2395 1061 c-3 -5 -1 -12 5 -16 5 -3 10 1 10 9 0 18 -6 21 -15 7z"/>
</g>
</svg>
